<svg xmlns="http://www.w3.org/2000/svg" xmlns:xlink="http://www.w3.org/1999/xlink" width="16" height="16" preserveAspectRatio="xMidYMid meet" viewBox="0 0 16 16" style="-ms-transform: rotate(360deg); -webkit-transform: rotate(360deg); transform: rotate(360deg);"><g fill="none"><path d="M8 2.002a1.998 1.998 0 1 0 0 3.996a1.998 1.998 0 0 0 0-3.996z" fill="#626262"/><path d="M12.5 3a1.5 1.5 0 1 0 0 3a1.5 1.5 0 0 0 0-3z" fill="#626262"/><path d="M3.5 3a1.5 1.5 0 1 0 0 3a1.5 1.5 0 0 0 0-3z" fill="#626262"/><path d="M5 7.993A1 1 0 0 1 6 7h4a1 1 0 0 1 1 1v3a3.02 3.02 0 0 1-.146.927A3.001 3.001 0 0 1 5 11V8v-.007z" fill="#626262"/><path d="M4 8c0-.365.097-.706.268-1H2a1 1 0 0 0-1 1v2.5a2.5 2.5 0 0 0 3.436 2.319A3.983 3.983 0 0 1 4 10.999V8z" fill="#626262"/><path d="M12 8v3c0 .655-.157 1.273-.436 1.819A2.5 2.5 0 0 0 15 10.5V8a1 1 0 0 0-1-1h-2.268c.17.294.268.635.268 1z" fill="#626262"/></g><rect x="0" y="0" width="16" height="16" fill="rgba(0, 0, 0, 0)" /></svg>